<svg width="427" height="427" viewBox="0 0 427 427" fill="none" xmlns="http://www.w3.org/2000/svg">
<circle cx="213.355" cy="213.355" r="213.355" fill="#235893" fill-opacity="0.72"/>
<circle cx="213.355" cy="212.355" r="187.355" fill="#215F97" fill-opacity="0.87"/>
<circle cx="213.5" cy="212.5" r="159.5" fill="#99C8EE"/>
<path fill-rule="evenodd" clip-rule="evenodd" d="M214 371.999C214.167 372 214.333 372 214.5 372C302.589 372 374 300.589 374 212.5C374 124.411 302.589 53 214.5 53C214.333 53 214.167 53.0003 214 53.0008V371.999Z" fill="#7AB9E8"/>
<path d="M54 203H213V222H54V203Z" fill="#589ADF"/>
<rect x="215" y="203" width="159" height="19" rx="2" fill="#99C8EE"/>
<path d="M184 123.5C184 107.208 197.208 94 213.5 94C229.792 94 243 107.208 243 123.5V251H184V123.5Z" fill="#F2F2F4"/>
<path fill-rule="evenodd" clip-rule="evenodd" d="M213 251H243V123.5C243 107.208 229.792 94 213.5 94C213.333 94 213.166 94.0014 213 94.0042V251Z" fill="#DFDFE1"/>
<circle cx="213.5" cy="285.5" r="46.5" fill="#F2F2F4"/>
<path fill-rule="evenodd" clip-rule="evenodd" d="M213 331.997V239.003C213.166 239.001 213.333 239 213.5 239C239.181 239 260 259.819 260 285.5C260 311.181 239.181 332 213.5 332C213.333 332 213.166 331.999 213 331.997Z" fill="#DFDFE1"/>
<path d="M203 147C203 141.477 207.477 137 213 137H214C219.523 137 224 141.477 224 147V268H203V147Z" fill="#FF5151"/>
<circle cx="213" cy="286" r="23" fill="#FF5151"/>
<path fill-rule="evenodd" clip-rule="evenodd" d="M212.753 308.999V263.001C212.835 263 212.917 263 213 263C225.703 263 236 273.297 236 286C236 298.703 225.703 309 213 309C212.917 309 212.835 309 212.753 308.999Z" fill="#B71515"/>
</svg>
